
<svg width="52" height="50" viewBox="0 0 52 50" fill="none" xmlns="http://www.w3.org/2000/svg">
<path d="M15.0716 13.8267C15.1065 13.8684 15.1374 13.9025 15.1723 13.9442C15.3817 14.1906 15.6065 14.4597 15.8507 14.7478C15.9709 14.8918 16.0988 15.0396 16.2267 15.1912C16.8741 15.953 17.6068 16.8172 18.3781 17.7192C18.6844 18.0793 18.9984 18.4469 19.3124 18.8146C19.6264 19.1823 19.9443 19.5537 20.2583 19.9213C20.2776 19.9441 20.297 19.9668 20.3164 19.9895C20.4598 20.1563 20.5994 20.3231 20.7427 20.4861C20.766 20.5126 20.7893 20.5429 20.8164 20.5695C20.9288 20.6983 21.0374 20.8272 21.146 20.956C21.2157 21.0394 21.2855 21.119 21.3552 21.2024C21.3747 21.2252 21.394 21.2479 21.4134 21.2706C21.456 21.3237 21.5026 21.3729 21.5452 21.4261C21.5995 21.4904 21.6537 21.5549 21.7081 21.6193C21.7312 21.6497 21.7585 21.6762 21.7816 21.7065C21.8476 21.7823 21.9135 21.8619 21.9794 21.9377C22.0259 21.9907 22.0685 22.0439 22.115 22.0969C22.1693 22.1613 22.2236 22.2258 22.2779 22.2902C22.3244 22.347 22.3748 22.4002 22.4213 22.4569C22.4445 22.4835 22.4678 22.5138 22.4949 22.5403C22.5686 22.6275 22.6422 22.7147 22.7159 22.7981C22.7392 22.8246 22.7624 22.8512 22.7857 22.8777C22.8283 22.9307 22.8748 22.98 22.9174 23.0293C22.964 23.0823 23.0066 23.1354 23.0531 23.1885C23.0764 23.215 23.0958 23.2377 23.119 23.2643C23.3904 23.5789 23.6424 23.8783 23.8827 24.155C23.8943 24.1663 23.9059 24.1815 23.9176 24.1929C23.9912 24.2763 24.0571 24.3558 24.1269 24.4355C24.1657 24.4809 24.2044 24.5264 24.2393 24.5681C24.2548 24.5871 24.2743 24.6098 24.2897 24.6288C24.406 24.7614 24.5107 24.8865 24.6154 25.0077C24.7433 25.1556 24.8635 25.2958 24.9681 25.4171C24.9991 25.455 25.0263 25.4854 25.0534 25.5195L25.0572 25.5232C25.1697 25.6559 25.2704 25.7734 25.3519 25.8681C25.3519 25.8681 25.3519 25.8681 25.3557 25.8719C25.3945 25.9174 25.4333 25.9591 25.4643 25.997C25.472 26.0046 25.4798 26.0083 25.4876 26.0159C25.5302 26.0463 25.6 26.05 25.6426 26.0159C25.6504 26.0083 25.6581 26.0046 25.6659 25.997C25.693 25.9667 25.724 25.9288 25.7589 25.8909C25.7821 25.8605 25.8093 25.8302 25.8364 25.7999C25.8984 25.7279 25.9682 25.6483 26.0419 25.5612C26.069 25.5308 26.0923 25.5043 26.1156 25.4739C26.1232 25.4663 26.1272 25.4588 26.1349 25.4512C26.1736 25.4057 26.2163 25.3564 26.2589 25.3072C26.2589 25.3034 26.2629 25.3034 26.2629 25.3034C26.2977 25.2617 26.3365 25.2162 26.3753 25.1708C26.4024 25.1366 26.4334 25.1025 26.4644 25.0646C26.5729 24.9358 26.6893 24.8031 26.8133 24.6553C26.8288 24.6363 26.8443 24.6173 26.8637 24.5984C26.9141 24.5378 26.9722 24.4733 27.0265 24.4089C27.0769 24.3521 27.1273 24.2914 27.1777 24.2308C27.3522 24.0261 27.5382 23.8101 27.732 23.5826C27.7708 23.5409 27.8057 23.4955 27.8444 23.4538C27.8561 23.4386 27.8715 23.4234 27.8832 23.4083C27.9374 23.3439 27.9956 23.2794 28.0498 23.2112C28.108 23.143 28.1662 23.0747 28.2282 23.0028C28.263 22.9611 28.2979 22.9231 28.3328 22.8814C28.3483 22.8625 28.3638 22.8473 28.3794 22.8284C28.4607 22.7299 28.546 22.6313 28.6313 22.5327C28.6546 22.5062 28.6739 22.4835 28.6972 22.4569C28.7243 22.4267 28.7515 22.3963 28.7747 22.366C28.9841 22.1234 29.1973 21.8733 29.4143 21.6155C29.4647 21.5549 29.5191 21.4943 29.5694 21.4337C29.5771 21.4261 29.5849 21.4146 29.5927 21.4071C29.6586 21.3275 29.7284 21.2479 29.7981 21.1683C29.8563 21.1039 29.9105 21.0357 29.9687 20.9712C30.0772 20.8461 30.1858 20.7173 30.2944 20.5884C30.3253 20.5505 30.3564 20.5126 30.3912 20.4747C30.5308 20.3117 30.6704 20.1487 30.8099 19.9858C30.8293 19.9668 30.8448 19.9441 30.8641 19.9252C31.1781 19.5575 31.4921 19.186 31.81 18.8184C32.124 18.4508 32.438 18.0831 32.7442 17.7231C33.5118 16.8209 34.2483 15.9568 34.8956 15.195C35.0236 15.0434 35.1515 14.8955 35.2717 14.7515C35.5159 14.4635 35.7407 14.1943 35.9501 13.948C35.985 13.9063 36.0121 13.8722 36.0469 13.8343C33.2791 11.3707 29.6004 9.86597 25.5651 9.86597C21.518 9.86597 17.8393 11.3669 15.0716 13.8267Z" fill="black"/>
<path d="M30.0302 32.3569C29.8092 32.1598 29.4604 32.2167 29.3092 32.4706L26.9446 36.4882L26.3593 37.4775C26.2507 37.6593 26.053 37.7731 25.836 37.7731H25.5568H25.2855H25.2777C25.0607 37.7731 24.8591 37.6593 24.7505 37.4736L24.7467 37.4699L21.8005 32.463C21.6533 32.2091 21.3005 32.156 21.0796 32.3494L18.8816 34.2672L15.827 36.9355C18.4901 39.0238 21.8704 40.2746 25.5529 40.2746C29.2355 40.2746 32.6158 39.0238 35.2828 36.9316L34.1083 35.9045L30.0302 32.3569Z" fill="black"/>
<path d="M13.401 23.6584C12.6877 22.4872 11.8504 21.1114 11.1449 19.9478C11.0945 19.8644 11.0441 19.781 10.9937 19.7014C10.3463 21.3729 9.98975 23.1846 9.98975 25.0759C9.98975 27.1453 10.4122 29.1125 11.1798 30.909L11.7729 30.2003L14.9593 26.3911C14.9632 26.3873 14.9903 26.357 15.0252 26.3115C15.0214 26.3078 15.0174 26.3039 15.0136 26.2963C14.9166 26.1486 14.2421 25.0418 13.401 23.6584Z" fill="black"/>
<path d="M25.5845 0C11.4548 0 0 11.1924 0 25C0 38.8076 11.4548 50 25.5845 50C39.7141 50 51.1689 38.8076 51.1689 25C51.1689 11.1924 39.7141 0 25.5845 0ZM45.5868 38.1822H45.5752H36.7486C36.737 38.1822 36.7215 38.1785 36.7099 38.1747C36.7059 38.1785 36.7059 38.1785 36.7021 38.1822L36.6982 38.1785C33.6746 40.6345 29.7904 42.1126 25.5534 42.1126C21.3165 42.1126 17.4323 40.6345 14.4126 38.1785H14.4087C14.4048 38.1747 14.4048 38.1747 14.401 38.1709C14.3893 38.1747 14.3777 38.1785 14.3622 38.1785H5.53555H5.52392C5.34948 38.1785 5.25645 37.9814 5.36498 37.8525L9.85002 32.4894C8.73752 30.2456 8.11338 27.7289 8.11338 25.0682C8.11338 15.6572 15.9205 8.02759 25.5534 8.02759C35.1864 8.02759 42.9935 15.6572 42.9935 25.0682C42.9935 27.7252 42.3694 30.2418 41.2607 32.4856L42.9625 34.5172L45.7458 37.845L45.7535 37.8525C45.8544 37.9851 45.7613 38.1822 45.5868 38.1822Z" fill="black"/>
<path d="M39.9694 19.9439C39.26 21.1075 38.4266 22.4833 37.7134 23.6545C36.8683 25.0416 36.1977 26.1447 36.1046 26.2962C36.1008 26.3 36.0969 26.3038 36.093 26.3076L36.1511 26.3796C36.155 26.3834 36.155 26.3872 36.1589 26.391L39.9307 30.9013C40.6943 29.1048 41.1169 27.1377 41.1169 25.072C41.1169 23.1807 40.7602 21.3728 40.1167 19.7051C40.0664 19.7847 40.0198 19.8643 39.9694 19.9439Z" fill="black"/>
</svg>
